<?xml version="1.0" encoding="UTF-8" standalone="no" ?>
<!DOCTYPE svg PUBLIC "-//W3C//DTD SVG 1.1//EN" "http://www.w3.org/Graphics/SVG/1.1/DTD/svg11.dtd">
<svg xmlns="http://www.w3.org/2000/svg" xmlns:xlink="http://www.w3.org/1999/xlink" version="1.1" width="500" height="500" viewBox="0 0 500 500" xml:space="preserve">
<desc>Created with Fabric.js 3.6.3</desc>
<defs>
</defs>
<rect x="0" y="0" width="100%" height="100%" fill="#ffffff"></rect>
<g transform="matrix(1,0,0,1,334.5076516752415,228.92109534038718)" style=""  ><path fill="#588F27" opacity="1" d="M7.52-28.15L7.52-28.15Q1.01-28.15-3.78-25.82Q-8.58-23.48-11.75-19.74Q-14.92-16.00-16.46-11.34Q-18.00-6.68-18.00-2.10L-18.00-2.10Q-18.00 3.09-15.97 8.06Q-13.95 13.04-10.38 16.86Q-6.82 20.69-2.07 23.02Q2.68 25.36 8.23 25.36L8.23 25.36Q9.81 25.36 11.97 25.00Q14.12 24.65 16.24 23.64Q18.35 22.63 20.15 20.78Q21.96 18.93 22.92 15.94L22.92 15.94L23.80 15.94L23.80 25.71Q22.48 25.71 21.03 26.06Q19.58 26.41 17.82 26.85L17.82 26.85Q15.53 27.47 12.76 28.00Q9.99 28.52 6.91 28.52L6.91 28.52Q-0.75 28.52-6.56 25.88Q-12.36 23.24-16.24 19.02Q-20.11 14.80-22.04 9.47Q-23.98 4.15-23.98-1.31L-23.98-1.31Q-23.98-6.76-22.04-12.13Q-20.11-17.50-16.15-21.77Q-12.19-26.04-6.20-28.68Q-0.22-31.32 7.88-31.32L7.88-31.32Q10.78-31.32 13.11-30.79Q15.44-30.26 17.29-29.73L17.29-29.73Q18.61-29.29 19.71-29.07Q20.81-28.85 21.87-28.85L21.87-28.85L21.87-19.08L20.99-19.08Q20.46-21.81 19.05-23.62Q17.64-25.42 15.75-26.39Q13.86-27.36 11.70-27.75Q9.55-28.15 7.52-28.15Z"/></g>
<g transform="matrix(1,0,0,1,257.73873071894525,328.54950580732935)" style=""  ><path fill="#588F27" opacity="1" d="M-23.66-8.96L-23.66-8.96Q-25.73-8.96-27.26-8.21Q-28.78-7.47-29.79-6.28Q-30.80-5.09-31.29-3.61Q-31.78-2.12-31.78-0.67L-31.78-0.67Q-31.78 0.98-31.14 2.57Q-30.49 4.15-29.36 5.37Q-28.22 6.58-26.71 7.33Q-25.20 8.07-23.44 8.07L-23.44 8.07Q-22.93 8.07-22.25 7.96Q-21.56 7.84-20.89 7.52Q-20.22 7.20-19.64 6.61Q-19.07 6.02-18.76 5.07L-18.76 5.07L-18.48 5.07L-18.48 8.18Q-18.90 8.18-19.36 8.29Q-19.82 8.40-20.38 8.54L-20.38 8.54Q-21.11 8.74-21.99 8.91Q-22.88 9.08-23.86 9.08L-23.86 9.08Q-26.29 9.08-28.14 8.24Q-29.99 7.40-31.22 6.05Q-32.45 4.71-33.07 3.01Q-33.68 1.32-33.68-0.42L-33.68-0.42Q-33.68-2.15-33.07-3.86Q-32.45-5.57-31.19-6.93Q-29.93-8.28-28.03-9.12Q-26.12-9.96-23.55-9.96L-23.55-9.96Q-22.62-9.96-21.88-9.80Q-21.14-9.63-20.55-9.46L-20.55-9.46Q-20.13-9.32-19.78-9.25Q-19.43-9.18-19.10-9.18L-19.10-9.18L-19.10-6.07L-19.38-6.07Q-19.54-6.94-19.99-7.51Q-20.44-8.09-21.04-8.40Q-21.64-8.70-22.33-8.83Q-23.02-8.96-23.66-8.96Z"/><path fill="#588F27" opacity="1" d="M5.40-0.67L5.40-0.95L9.41-0.95L9.41-0.67L9.27-0.67Q9.04-0.67 8.88-0.51Q8.71-0.36 8.60-0.14Q8.48 0.09 8.41 0.34Q8.34 0.59 8.34 0.79L8.34 0.79L8.34 8.29Q7.84 8.49 7.20 8.63Q6.55 8.77 5.85 8.87Q5.15 8.96 4.42 9.02Q3.70 9.08 3.08 9.08L3.08 9.08Q0.56 9.08-1.32 8.24Q-3.19 7.40-4.42 6.04Q-5.66 4.68-6.26 2.97Q-6.86 1.26-6.86-0.47L-6.86-0.47Q-6.86-2.21-6.26-3.92Q-5.66-5.62-4.41-6.97Q-3.16-8.31-1.27-9.14Q0.62-9.96 3.22-9.96L3.22-9.96Q4.20-9.96 5.04-9.80Q5.88-9.63 6.52-9.49L6.52-9.49Q6.89-9.40 7.15-9.33Q7.42-9.26 7.62-9.26L7.62-9.26L7.87-9.26L7.87-6.30L7.59-6.30Q7.42-7.16 6.93-7.70Q6.44-8.23 5.80-8.51Q5.15-8.79 4.44-8.89Q3.72-8.98 3.11-8.98L3.11-8.98Q1.01-8.98-0.53-8.24Q-2.07-7.50-3.05-6.32Q-4.03-5.15-4.51-3.68Q-4.98-2.21-4.98-0.75L-4.98-0.75Q-4.98 0.87-4.37 2.45Q-3.75 4.04-2.63 5.28Q-1.51 6.53 0.07 7.30Q1.65 8.07 3.58 8.07L3.58 8.07Q4.12 8.07 4.90 7.94Q5.68 7.82 6.47 7.37L6.47 7.37L6.47 0.79Q6.47 0.59 6.41 0.34Q6.36 0.09 6.23-0.14Q6.10-0.36 5.94-0.51Q5.77-0.67 5.54-0.67L5.54-0.67L5.40-0.67Z"/><path fill="#588F27" opacity="1" d="M22.46 8.80L22.46 8.52L22.60 8.52Q22.82 8.52 22.99 8.36Q23.16 8.21 23.28 7.98Q23.41 7.76 23.48 7.51Q23.55 7.26 23.55 7.03L23.55 7.03L23.55-7.95Q23.55-8.14 23.48-8.40Q23.41-8.65 23.28-8.87Q23.16-9.10 22.99-9.25Q22.82-9.40 22.60-9.40L22.60-9.40L22.46-9.40L22.46-9.68L33.24-9.68L33.24-7.08L32.96-7.08Q32.90-7.72 32.45-8.21Q32.00-8.70 31.05-8.70L31.05-8.70L25.42-8.70L25.42-1.62L30.07-1.62Q30.72-1.62 31.15-2.01Q31.58-2.40 31.58-2.94L31.58-2.94L31.86-2.94L31.86 0.56L31.58 0.56Q31.58 0.06 31.16-0.30Q30.74-0.67 30.07-0.67L30.07-0.67L25.42-0.67L25.42 7.82L31.56 7.82Q32.09 7.82 32.48 7.56Q32.87 7.31 33.14 6.96Q33.40 6.61 33.53 6.21Q33.66 5.80 33.66 5.52L33.66 5.52L33.94 5.52L33.94 8.80L22.46 8.80Z"/></g>
<g transform="matrix(0.8004578321095452 0 0 0.8004578321095452 180.864239944255 227.0493828350343)"  >
<g style=""   >
		<g transform="matrix(1 0 0 1 -13.144444444444442 39.40000000000001)"  >
<path style="stroke: none; stroke-width: 1; stroke-dasharray: none; stroke-linecap: butt; stroke-dashoffset: 0; stroke-linejoin: miter; stroke-miterlimit: 4; fill: rgb(88,143,39); fill-rule: nonzero; opacity: 1;"  transform=" translate(-36.855555555555554, -89.4)" d="M 36.5 87.8 c 0 0 0.4 2 0 3.2 C 36.5 91 38.1 89.8 36.5 87.8 z" stroke-linecap="round" />
</g>
		<g transform="matrix(1 0 0 1 -17.229452750762086 38.55805258290393)"  >
<path style="stroke: none; stroke-width: 1; stroke-dasharray: none; stroke-linecap: butt; stroke-dashoffset: 0; stroke-linejoin: miter; stroke-miterlimit: 4; fill: rgb(88,143,39); fill-rule: nonzero; opacity: 1;"  transform=" translate(-32.770547249237914, -88.55805258290394)" d="M 34.1 86.1 c 0 0 0 3.4 -2.8 4.8 C 31.3 90.9 35 92.2 34.1 86.1 z" stroke-linecap="round" />
</g>
		<g transform="matrix(1 0 0 1 -22.03099421616732 34.91600000000001)"  >
<path style="stroke: none; stroke-width: 1; stroke-dasharray: none; stroke-linecap: butt; stroke-dashoffset: 0; stroke-linejoin: miter; stroke-miterlimit: 4; fill: rgb(88,143,39); fill-rule: nonzero; opacity: 1;"  transform=" translate(-27.96900578383268, -84.91600000000001)" d="M 32.2 82 c 0 0 -0.9 4.8 -8.5 5.4 C 23.7 87.4 32.9 90.1 32.2 82 z" stroke-linecap="round" />
</g>
		<g transform="matrix(1 0 0 1 -26.25 31.249811781685416)"  >
<path style="stroke: none; stroke-width: 1; stroke-dasharray: none; stroke-linecap: butt; stroke-dashoffset: 0; stroke-linejoin: miter; stroke-miterlimit: 4; fill: rgb(88,143,39); fill-rule: nonzero; opacity: 1;"  transform=" translate(-23.75, -81.24981178168542)" d="M 30.5 79.7 c 0 0 -8.1 3.4 -13.5 1.1 C 17 80.9 24.7 85.9 30.5 79.7 z" stroke-linecap="round" />
</g>
		<g transform="matrix(1 0 0 1 -29.25 25.013075092295878)"  >
<path style="stroke: none; stroke-width: 1; stroke-dasharray: none; stroke-linecap: butt; stroke-dashoffset: 0; stroke-linejoin: miter; stroke-miterlimit: 4; fill: rgb(88,143,39); fill-rule: nonzero; opacity: 1;"  transform=" translate(-20.75, -75.01307509229588)" d="M 30.5 77 c 0 0 -14.8 0 -19.5 -5.1 C 11 71.9 17 81.3 30.5 77 z" stroke-linecap="round" />
</g>
		<g transform="matrix(1 0 0 1 -31.604431987247303 16.675455595596077)"  >
<path style="stroke: none; stroke-width: 1; stroke-dasharray: none; stroke-linecap: butt; stroke-dashoffset: 0; stroke-linejoin: miter; stroke-miterlimit: 4; fill: rgb(88,143,39); fill-rule: nonzero; opacity: 1;"  transform=" translate(-18.395568012752697, -66.67545559559608)" d="M 30.5 73.3 c 0 0 -15.8 -1 -24.2 -13.5 C 6 60.1 13.3 75.7 30.5 73.3 z" stroke-linecap="round" />
</g>
		<g transform="matrix(1 0 0 1 -33.65 9.100000000000001)"  >
<path style="stroke: none; stroke-width: 1; stroke-dasharray: none; stroke-linecap: butt; stroke-dashoffset: 0; stroke-linejoin: miter; stroke-miterlimit: 4; fill: rgb(88,143,39); fill-rule: nonzero; opacity: 1;"  transform=" translate(-16.35, -59.1)" d="M 29.7 69.2 c 0 0 -18.7 -3.8 -26.7 -20.2 C 3 49 9.4 68.6 29.7 69.2 z" stroke-linecap="round" />
</g>
		<g transform="matrix(1 0 0 1 -35.650000000000006 0.9000000000000092)"  >
<path style="stroke: none; stroke-width: 1; stroke-dasharray: none; stroke-linecap: butt; stroke-dashoffset: 0; stroke-linejoin: miter; stroke-miterlimit: 4; fill: rgb(88,143,39); fill-rule: nonzero; opacity: 1;"  transform=" translate(-14.349999999999998, -50.900000000000006)" d="M 27.4 65.2 c 0 0 -20.5 -8.3 -26.1 -28.6 C 1.3 36.6 4.5 60.3 27.4 65.2 z" stroke-linecap="round" />
</g>
		<g transform="matrix(1 0 0 1 -35.80008709536943 -6.7501411238980324)"  >
<path style="stroke: none; stroke-width: 1; stroke-dasharray: none; stroke-linecap: butt; stroke-dashoffset: 0; stroke-linejoin: miter; stroke-miterlimit: 4; fill: rgb(88,143,39); fill-rule: nonzero; opacity: 1;"  transform=" translate(-14.19991290463057, -43.24985887610197)" d="M 26.2 61 c 0 0 -21.2 -12.4 -24 -35.5 C 2.2 25.4 1.9 51.9 26.2 61 z" stroke-linecap="round" />
</g>
		<g transform="matrix(1 0 0 1 -22.637558940458582 -0.46233130156880975)"  >
<path style="stroke: none; stroke-width: 1; stroke-dasharray: none; stroke-linecap: butt; stroke-dashoffset: 0; stroke-linejoin: miter; stroke-miterlimit: 4; fill: rgb(88,143,39); fill-rule: nonzero; opacity: 1;"  transform=" translate(-27.36244105954142, -49.53766869843119)" d="M 49 87.8 c 0 0 -14.3 -0.2 -13.5 -24.3 c 0 0 0.2 -4.8 -4 -7.1 c -1.7 -1 -3.3 -2.1 -4.6 -3.4 C 20.3 46.7 5.2 29.6 6.7 9 c 0 0 -7.5 23.4 19.1 49 c 0 0 0 0 0 0 c 2.7 3 4.4 6.8 4.7 10.9 c 0.4 5.3 2.6 14.7 11.9 20.5 C 44.7 90.7 47.6 90.1 49 87.8 L 49 87.8 z" stroke-linecap="round" />
</g>
		<g transform="matrix(1 0 0 1 13.844444444444449 39.40000000000001)"  >
<path style="stroke: none; stroke-width: 1; stroke-dasharray: none; stroke-linecap: butt; stroke-dashoffset: 0; stroke-linejoin: miter; stroke-miterlimit: 4; fill: rgb(88,143,39); fill-rule: nonzero; opacity: 1;"  transform=" translate(-63.84444444444445, -89.4)" d="M 64.2 87.8 c 0 0 -0.4 2 0 3.2 C 64.2 91 62.6 89.8 64.2 87.8 z" stroke-linecap="round" />
</g>
		<g transform="matrix(1 0 0 1 18.016170903190933 38.55805258290393)"  >
<path style="stroke: none; stroke-width: 1; stroke-dasharray: none; stroke-linecap: butt; stroke-dashoffset: 0; stroke-linejoin: miter; stroke-miterlimit: 4; fill: rgb(88,143,39); fill-rule: nonzero; opacity: 1;"  transform=" translate(-68.01617090319093, -88.55805258290394)" d="M 66.7 86.1 c 0 0 0 3.4 2.8 4.8 C 69.5 90.9 65.7 92.2 66.7 86.1 z" stroke-linecap="round" />
</g>
		<g transform="matrix(1 0 0 1 22.730994216167318 34.91600000000001)"  >
<path style="stroke: none; stroke-width: 1; stroke-dasharray: none; stroke-linecap: butt; stroke-dashoffset: 0; stroke-linejoin: miter; stroke-miterlimit: 4; fill: rgb(88,143,39); fill-rule: nonzero; opacity: 1;"  transform=" translate(-72.73099421616732, -84.91600000000001)" d="M 68.5 82 c 0 0 0.9 4.8 8.5 5.4 C 77 87.4 67.8 90.1 68.5 82 z" stroke-linecap="round" />
</g>
		<g transform="matrix(1 0 0 1 26.950000000000003 31.249811781685416)"  >
<path style="stroke: none; stroke-width: 1; stroke-dasharray: none; stroke-linecap: butt; stroke-dashoffset: 0; stroke-linejoin: miter; stroke-miterlimit: 4; fill: rgb(88,143,39); fill-rule: nonzero; opacity: 1;"  transform=" translate(-76.95, -81.24981178168542)" d="M 70.2 79.7 c 0 0 8.1 3.4 13.5 1.1 C 83.7 80.9 76.1 85.9 70.2 79.7 z" stroke-linecap="round" />
</g>
		<g transform="matrix(1 0 0 1 29.950000000000003 25.013075092295878)"  >
<path style="stroke: none; stroke-width: 1; stroke-dasharray: none; stroke-linecap: butt; stroke-dashoffset: 0; stroke-linejoin: miter; stroke-miterlimit: 4; fill: rgb(88,143,39); fill-rule: nonzero; opacity: 1;"  transform=" translate(-79.95, -75.01307509229588)" d="M 70.2 77 c 0 0 14.8 0 19.5 -5.1 C 89.7 71.9 83.7 81.3 70.2 77 z" stroke-linecap="round" />
</g>
		<g transform="matrix(1 0 0 1 32.30049970409807 16.674749770939556)"  >
<path style="stroke: none; stroke-width: 1; stroke-dasharray: none; stroke-linecap: butt; stroke-dashoffset: 0; stroke-linejoin: miter; stroke-miterlimit: 4; fill: rgb(88,143,39); fill-rule: nonzero; opacity: 1;"  transform=" translate(-82.30049970409807, -66.67474977093956)" d="M 70.2 73.3 c 0 0 15.8 -1 24.2 -13.5 C 94.5 60 87.1 75.7 70.2 73.3 z" stroke-linecap="round" />
</g>
		<g transform="matrix(1 0 0 1 34.449999999999996 9.100000000000001)"  >
<path style="stroke: none; stroke-width: 1; stroke-dasharray: none; stroke-linecap: butt; stroke-dashoffset: 0; stroke-linejoin: miter; stroke-miterlimit: 4; fill: rgb(88,143,39); fill-rule: nonzero; opacity: 1;"  transform=" translate(-84.44999999999999, -59.1)" d="M 71.1 69.2 c 0 0 18.7 -3.8 26.7 -20.2 C 97.7 49 91.3 68.6 71.1 69.2 z" stroke-linecap="round" />
</g>
		<g transform="matrix(1 0 0 1 36.34999999999999 0.9000000000000092)"  >
<path style="stroke: none; stroke-width: 1; stroke-dasharray: none; stroke-linecap: butt; stroke-dashoffset: 0; stroke-linejoin: miter; stroke-miterlimit: 4; fill: rgb(88,143,39); fill-rule: nonzero; opacity: 1;"  transform=" translate(-86.35, -50.900000000000006)" d="M 73.3 65.2 c 0 0 20.5 -8.3 26.1 -28.6 C 99.4 36.6 96.2 60.3 73.3 65.2 z" stroke-linecap="round" />
</g>
		<g transform="matrix(1 0 0 1 36.50008709536944 -6.7501411238980324)"  >
<path style="stroke: none; stroke-width: 1; stroke-dasharray: none; stroke-linecap: butt; stroke-dashoffset: 0; stroke-linejoin: miter; stroke-miterlimit: 4; fill: rgb(88,143,39); fill-rule: nonzero; opacity: 1;"  transform=" translate(-86.50008709536944, -43.24985887610197)" d="M 74.5 61 c 0 0 21.2 -12.4 24 -35.5 C 98.5 25.4 98.8 51.9 74.5 61 z" stroke-linecap="round" />
</g>
		<g transform="matrix(1 0 0 1 23.387558940458575 -0.46233130156880975)"  >
<path style="stroke: none; stroke-width: 1; stroke-dasharray: none; stroke-linecap: butt; stroke-dashoffset: 0; stroke-linejoin: miter; stroke-miterlimit: 4; fill: rgb(88,143,39); fill-rule: nonzero; opacity: 1;"  transform=" translate(-73.38755894045858, -49.53766869843119)" d="M 51.8 87.8 c 0 0 14.3 -0.2 13.5 -24.3 c 0 0 -0.2 -4.8 4 -7.1 c 1.7 -1 3.3 -2.1 4.6 -3.4 C 80.4 46.7 95.5 29.6 94 9 c 0 0 7.5 23.4 -19.1 49 c 0 0 0 0 0 0 c -2.7 3 -4.4 6.8 -4.7 10.9 c -0.4 5.3 -2.6 14.7 -11.9 20.5 C 56 90.7 53.1 90.1 51.8 87.8 L 51.8 87.8 z" stroke-linecap="round" />
</g>
		<g transform="matrix(1 0 0 1 -153.9 -211.1)"  >
<path style="stroke: none; stroke-width: 1; stroke-dasharray: none; stroke-linecap: butt; stroke-dashoffset: 0; stroke-linejoin: miter; stroke-miterlimit: 4; fill: rgb(88,143,39); fill-rule: nonzero; opacity: 1;"  transform=" translate(103.9, 161.1)" d="M -103.9 -161.1" stroke-linecap="round" />
</g>
</g>
</g>
<g transform="matrix(0 1.6283559867534396 -1.6283559867534396 0 257.7387307189453 227.04938283503424)"  >
<path style="stroke: none; stroke-width: 0; stroke-dasharray: none; stroke-linecap: butt; stroke-dashoffset: 0; stroke-linejoin: miter; stroke-miterlimit: 4; fill: rgb(88,143,39); fill-rule: nonzero; opacity: 1;"  transform=" translate(-49.95, -50)" d="M 91.7 49 H 8.3 c -0.6 0 -1 0.4 -1 1 s 0.4 1 1 1 h 83.3 c 0.6 0 1 -0.4 1 -1 S 92.2 49 91.7 49 z" stroke-linecap="round" />
</g>
</svg>